<mxfile host="app.diagrams.net" modified="2021-12-14T08:56:12.481Z" agent="5.0 (Macintosh; Intel Mac OS X 10_15_7) AppleWebKit/605.1.15 (KHTML, like Gecko) Version/13.1.3 Safari/605.1.15" etag="N7a6t_088nk760fAFO5C" version="15.8.2" type="github">
  <diagram id="6I0OCvxSQrVGMHxT2VVA" name="Page-1">
    <mxGraphModel dx="1914" dy="4044" grid="1" gridSize="10" guides="1" tooltips="1" connect="1" arrows="1" fold="1" page="1" pageScale="1" pageWidth="850" pageHeight="1100" math="0" shadow="0">
      <root>
        <mxCell id="0" />
        <mxCell id="1" parent="0" />
        <mxCell id="xDEqfU46yZB2q6ntMZHl-1" value="HTTP &lt;br&gt;Client" style="ellipse;whiteSpace=wrap;html=1;aspect=fixed;fillColor=#d5e8d4;strokeColor=#82b366;" parent="1" vertex="1">
          <mxGeometry x="-820" y="-1990" width="80" height="80" as="geometry" />
        </mxCell>
        <mxCell id="xDEqfU46yZB2q6ntMZHl-2" value="Transport Client" style="ellipse;whiteSpace=wrap;html=1;aspect=fixed;fillColor=#f8cecc;strokeColor=#b85450;" parent="1" vertex="1">
          <mxGeometry x="-820" y="-1820" width="80" height="80" as="geometry" />
        </mxCell>
        <mxCell id="kepf1CVrGvFf2VBISRmh-6" style="edgeStyle=orthogonalEdgeStyle;rounded=0;orthogonalLoop=1;jettySize=auto;html=1;exitX=1;exitY=0.5;exitDx=0;exitDy=0;" parent="1" source="xDEqfU46yZB2q6ntMZHl-5" edge="1">
          <mxGeometry relative="1" as="geometry">
            <mxPoint x="150" y="-1870" as="targetPoint" />
          </mxGeometry>
        </mxCell>
        <mxCell id="xDEqfU46yZB2q6ntMZHl-5" value="" style="rounded=1;whiteSpace=wrap;html=1;dashed=1;strokeWidth=3;fillColor=#f5f5f5;strokeColor=#666666;fontColor=#333333;" parent="1" vertex="1">
          <mxGeometry x="-620" y="-2050" width="800" height="360" as="geometry" />
        </mxCell>
        <mxCell id="xDEqfU46yZB2q6ntMZHl-6" value="&lt;div&gt;&lt;i&gt;Role&lt;/i&gt;:&lt;/div&gt;&lt;div&gt;&lt;b&gt;Master&lt;/b&gt;&lt;/div&gt;&lt;div&gt;&lt;div&gt;&lt;b&gt;Data&lt;/b&gt;&lt;/div&gt;&lt;/div&gt;&lt;div&gt;&lt;b&gt;Ingest&lt;/b&gt;&lt;/div&gt;&lt;div&gt;&lt;b&gt;Coordinato&lt;/b&gt;r&lt;/div&gt;" style="html=1;outlineConnect=0;whiteSpace=wrap;fillColor=#d5e8d4;shape=mxgraph.archimate3.application;appType=node;archiType=square;align=center;strokeColor=#82b366;strokeWidth=3;" parent="1" vertex="1">
          <mxGeometry x="-570" y="-2000" width="170" height="100" as="geometry" />
        </mxCell>
        <mxCell id="xDEqfU46yZB2q6ntMZHl-7" value="&lt;i&gt;Role:&lt;br&gt;&lt;/i&gt;&lt;b&gt;Maser-eligible&lt;br&gt;Data&lt;br&gt;Ingest&lt;br&gt;Coordinator&lt;/b&gt;" style="html=1;outlineConnect=0;whiteSpace=wrap;fillColor=#d5e8d4;shape=mxgraph.archimate3.application;appType=node;archiType=square;strokeColor=#82b366;strokeWidth=3;" parent="1" vertex="1">
          <mxGeometry x="-290" y="-2000" width="156" height="100" as="geometry" />
        </mxCell>
        <mxCell id="xDEqfU46yZB2q6ntMZHl-8" value="&lt;i&gt;Role:&amp;nbsp;&lt;/i&gt;&lt;br&gt;&lt;b&gt;Coordinator&lt;/b&gt;(Dedicated)" style="html=1;outlineConnect=0;whiteSpace=wrap;fillColor=#d5e8d4;shape=mxgraph.archimate3.application;appType=node;archiType=square;strokeColor=#82b366;strokeWidth=3;" parent="1" vertex="1">
          <mxGeometry x="-40" y="-2000" width="160" height="100" as="geometry" />
        </mxCell>
        <mxCell id="xDEqfU46yZB2q6ntMZHl-10" value="&lt;i&gt;Role:&lt;br&gt;&lt;/i&gt;&lt;b&gt;Machine leaning&lt;/b&gt;(X-pack)" style="html=1;outlineConnect=0;whiteSpace=wrap;fillColor=#d5e8d4;shape=mxgraph.archimate3.application;appType=node;archiType=square;strokeColor=#82b366;strokeWidth=3;" parent="1" vertex="1">
          <mxGeometry x="-563" y="-1810" width="156" height="80" as="geometry" />
        </mxCell>
        <mxCell id="xDEqfU46yZB2q6ntMZHl-11" value="&lt;i&gt;Role:&amp;nbsp;&lt;br&gt;&lt;/i&gt;&lt;b&gt;Tribe&lt;/b&gt;&lt;br&gt;Deprecated/Removed in 7.0" style="html=1;outlineConnect=0;whiteSpace=wrap;fillColor=#f8cecc;shape=mxgraph.archimate3.application;appType=node;archiType=square;strokeColor=#b85450;" parent="1" vertex="1">
          <mxGeometry x="-290" y="-1810" width="156" height="80" as="geometry" />
        </mxCell>
        <mxCell id="xDEqfU46yZB2q6ntMZHl-12" value="" style="shape=image;verticalLabelPosition=bottom;labelBackgroundColor=#ffffff;verticalAlign=top;aspect=fixed;imageAspect=0;image=data:image/png,iVBORw0KGgoAAAANSUhEUgAAAB4AAAAqCAYAAACk2+sZAAAMYmlDQ1BJQ0MgUHJvZmlsZQAASImVVwdYU8kWnltSSWiBCEgJvYkiNYCUEFoEAamCqIQkkFBiTAgqdnRRwbWLKFZ0VUTR1RWQtSBid1HsfbGgoqyLBRsqb0ICuvrK9873zZ0/Z878p2Tm3hkAdNr4MlkuqgtAnjRfHhcezBqTksoiPQJkgAEDoAeM+AKFjBMbGwWg9Pf/lLfXAKLqL7uouH4c/6+iLxQpBAAgaRBnCBWCPIgbAcCLBDJ5PgDEEKi3npwvU2ExxAZyGCDE01U4S42XqnCGGm/ts0mI40JcDwCZxufLswDQboZ6VoEgC/JoP4LYVSqUSAHQMYA4QCDmCyFOgHhIXt5EFZ4NsQO0l0G8A2J2xjecWf/gzxjg5/OzBrA6rz4hh0gUslz+1P+zNP9b8nKV/T7sYKOJ5RFxqvxhDW/kTIxUYRrEndKM6BhVrSF+LxGq6w4AShUrIxLV9qipQMGF9QNMiF2F/JBIiE0hDpPmRkdp9BmZkjAexHC1oFMk+bwEzdwFIkVovIZznXxiXEw/zpRzOZq5NXx5n1+VfbMyJ5Gj4b8hFvH6+d8UihOSIaYCgFELJEnREGtDbKDIiY9U22BWhWJudL+NXBmnit8GYrZIGh6s5sfSMuVhcRp7WZ6iP1+sWCzhRWtweb44IUJdH2yngN8XvxHEtSIpJ7GfR6QYE9Wfi1AUEqrOHWsRSRM1+WL3ZPnBcZq5XbLcWI09Thblhqv0VhCbKAriNXPxEflwcar58ShZfmyCOk48PZs/MlYdD14AogAXhAAWUMKWASaCbCBp6azrhL/UI2GAD+QgC4iAi0bTPyO5b0QKn/GgEPwFkQgoBuYF942KQAHUfx7Qqp8uILNvtKBvRg54DHEeiAS58Leyb5Z0wFsSeAQ1kh+8C2CsubCpxn7UcaAmSqNR9vOydPotiaHEEGIEMYzoiJvgAbgfHgWfQbC54Wzcpz/ar/aEx4RWwgPCVUIb4eYESZH8u1hGgTbIH6bJOOPbjHE7yOmJB+P+kB0y40zcBLjgHtAPBw+Enj2hlquJW5U769/kOZDBNzXX2FFcKShlECWI4vD9TG0nbc8BFlVFv62POtaMgapyB0a+98/9ps5C2Ed+b4ktwPZjp7Bj2BnsEFYHWNhRrB47jx1W4YE19KhvDfV7i+uLJwfySH7wx9f4VFVS4Vrt2uH6STMG8kVT8lUbjDtRNlUuyRLnszjwKyBi8aSCoUNYbq5urgCovinq19RrZt+3AmGe/aqbawmA/9Te3t5DX3WRFwHYfxhu81tfdfbt8HVwFoDTqwVKeYFah6seBPg20IE7yhiYA2vgADNyA17ADwSBUDASxIAEkALGwzqL4XqWg8lgOpgDikEpWApWgbVgI9gCdoDdYB+oA4fAMXASnAMXwVVwG66fdvAcdIG3oAdBEBJCRxiIMWKB2CLOiBvCRgKQUCQKiUNSkHQkC5EiSmQ6MhcpRZYja5HNSBXyK3IQOYacQVqRm8h9pAN5hXxEMZSGGqBmqB06DGWjHDQSTUDHoVnoJLQQnYcuRsvRSnQXWoseQ8+hV9E29DnajQFMC2NilpgLxsa4WAyWimVicmwmVoKVYZVYDdYA/+nLWBvWiX3AiTgDZ+EucA1H4Im4AJ+Ez8QX4WvxHXgt3oxfxu/jXfgXAp1gSnAm+BJ4hDGELMJkQjGhjLCNcIBwAu6mdsJbIpHIJNoTveFuTCFmE6cRFxHXE/cQG4mtxIfEbhKJZExyJvmTYkh8Uj6pmLSGtIt0lHSJ1E56T9YiW5DdyGHkVLKUXEQuI+8kHyFfIj8h91B0KbYUX0oMRUiZSllC2UppoFygtFN6qHpUe6o/NYGaTZ1DLafWUE9Q71Bfa2lpWWn5aI3WkmjN1irX2qt1Wuu+1geaPs2JxqWl0ZS0xbTttEbaTdprOp1uRw+ip9Lz6YvpVfTj9Hv099oM7aHaPG2h9iztCu1a7UvaL3QoOrY6HJ3xOoU6ZTr7dS7odOpSdO10ubp83Zm6FboHda/rdusx9Ibrxejl6S3S26l3Ru+pPknfTj9UX6g/T3+L/nH9hwyMYc3gMgSMuYytjBOMdgOigb0BzyDboNRgt0GLQZehvqGHYZLhFMMKw8OGbUyMacfkMXOZS5j7mNeYHweZDeIMEg1aOKhm0KVB74wGGwUZiYxKjPYYXTX6aMwyDjXOMV5mXGd81wQ3cTIZbTLZZIPJCZPOwQaD/QYLBpcM3jf4lilq6mQaZzrNdIvpedNuM3OzcDOZ2Rqz42ad5kzzIPNs85XmR8w7LBgWARYSi5UWRy2esQxZHFYuq5zVzOqyNLWMsFRabrZsseyxsrdKtCqy2mN115pqzbbOtF5p3WTdZWNhM8pmuk21zS1bii3bVmy72vaU7Ts7e7tku/l2dXZP7Y3sefaF9tX2dxzoDoEOkxwqHa44Eh3ZjjmO6x0vOqFOnk5ipwqnC86os5ezxHm9c+sQwhCfIdIhlUOuu9BcOC4FLtUu94cyh0YNLRpaN/TFMJthqcOWDTs17Iurp2uu61bX28P1h48cXjS8YfgrNyc3gVuF2xV3unuY+yz3eveXHs4eIo8NHjc8GZ6jPOd7Nnl+9vL2knvVeHV423ine6/zvs42YMeyF7FP+xB8gn1m+Rzy+eDr5Zvvu8/3bz8Xvxy/nX5PR9iPEI3YOuKhv5U/33+zf1sAKyA9YFNAW6BlID+wMvBBkHWQMGhb0BOOIyebs4vzItg1WB58IPgd15c7g9sYgoWEh5SEtITqhyaGrg29F2YVlhVWHdYV7hk+LbwxghARGbEs4jrPjCfgVfG6RnqPnDGyOZIWGR+5NvJBlFOUPKphFDpq5KgVo+5E20ZLo+tiQAwvZkXM3Vj72Emxv48mjo4dXTH6cdzwuOlxp+IZ8RPid8a/TQhOWJJwO9EhUZnYlKSTlJZUlfQuOSR5eXLbmGFjZow5l2KSIkmpTyWlJqVuS+0eGzp21dj2NM+04rRr4+zHTRl3ZrzJ+NzxhyfoTOBP2J9OSE9O35n+iR/Dr+R3Z/Ay1mV0CbiC1YLnwiDhSmGHyF+0XPQk0z9zeebTLP+sFVkd4kBxmbhTwpWslbzMjsjemP0uJyZne05vbnLunjxyXnreQam+NEfaPNF84pSJrTJnWbGsbZLvpFWTuuSR8m0KRDFOUZ9vAA/v55UOyp+U9wsCCioK3k9Omrx/it4U6ZTzU52mLpz6pDCs8Jdp+DTBtKbpltPnTL8/gzNj80xkZsbMplnWs+bNap8dPnvHHOqcnDl/FLkWLS96Mzd5bsM8s3mz5z38Kfyn6mLtYnnx9fl+8zcuwBdIFrQsdF+4ZuGXEmHJ2VLX0rLST4sEi87+PPzn8p97F2cublnitWTDUuJS6dJrywKX7Viut7xw+cMVo1bUrmStLFn5ZtWEVWfKPMo2rqauVq5uK48qr19js2bpmk9rxWuvVgRX7Flnum7hunfrhesvbQjaULPRbGPpxo+bJJtubA7fXFtpV1m2hbilYMvjrUlbT/3C/qVqm8m20m2ft0u3t+2I29Fc5V1VtdN055JqtFpZ3bErbdfF3SG762tcajbvYe4p3Qv2Kvc++zX912v7Ivc17Wfvr/nN9rd1BxgHSmqR2qm1XXXiurb6lPrWgyMPNjX4NRz4fejv2w9ZHqo4bHh4yRHqkXlHeo8WHu1ulDV2Hss69rBpQtPt42OOX2ke3dxyIvLE6ZNhJ4+f4pw6etr/9KEzvmcOnmWfrTvnda72vOf5A394/nGgxaul9oL3hfqLPhcbWke0HrkUeOnY5ZDLJ6/wrpy7Gn219VritRvX06633RDeeHoz9+bLWwW3em7PvkO4U3JX927ZPdN7lX86/rmnzavt8P2Q++cfxD+4/VDw8PkjxaNP7fMe0x+XPbF4UvXU7emhjrCOi8/GPmt/Lnve01n8l95f6144vPjt76C/z3eN6Wp/KX/Z+2rRa+PX2994vGnqju2+9zbvbc+7kvfG73d8YH849TH545OeyZ9In8o/O35u+BL55U5vXm+vjC/n9x0FMNjQzEwAXm0HgJ4CAAOeIahj1Xe+PkHU99Q+BP4TVt8L+8QLgBrYqY7r3EYA9sJmNxtyw151VE8IAqi7+0DTiCLT3U3NRYM3HsL73t7XZgCQGgD4LO/t7Vnf2/sZ3lGxmwA0TlLfNVVChHeDTaq7Lri5Ytxs8J2o76Hf5Ph9D1QReIDv+38BuUiKtO8AVTcAAACKZVhJZk1NACoAAAAIAAQBGgAFAAAAAQAAAD4BGwAFAAAAAQAAAEYBKAADAAAAAQACAACHaQAEAAAAAQAAAE4AAAAAAAAAkAAAAAEAAACQAAAAAQADkoYABwAAABIAAAB4oAIABAAAAAEAAAAeoAMABAAAAAEAAAAqAAAAAEFTQ0lJAAAAU2NyZWVuc2hvdHvM29gAAAAJcEhZcwAAFiUAABYlAUlSJPAAAAHUaVRYdFhNTDpjb20uYWRvYmUueG1wAAAAAAA8eDp4bXBtZXRhIHhtbG5zOng9ImFkb2JlOm5zOm1ldGEvIiB4OnhtcHRrPSJYTVAgQ29yZSA1LjQuMCI+CiAgIDxyZGY6UkRGIHhtbG5zOnJkZj0iaHR0cDovL3d3dy53My5vcmcvMTk5OS8wMi8yMi1yZGYtc3ludGF4LW5zIyI+CiAgICAgIDxyZGY6RGVzY3JpcHRpb24gcmRmOmFib3V0PSIiCiAgICAgICAgICAgIHhtbG5zOmV4aWY9Imh0dHA6Ly9ucy5hZG9iZS5jb20vZXhpZi8xLjAvIj4KICAgICAgICAgPGV4aWY6UGl4ZWxYRGltZW5zaW9uPjMwPC9leGlmOlBpeGVsWERpbWVuc2lvbj4KICAgICAgICAgPGV4aWY6VXNlckNvbW1lbnQ+U2NyZWVuc2hvdDwvZXhpZjpVc2VyQ29tbWVudD4KICAgICAgICAgPGV4aWY6UGl4ZWxZRGltZW5zaW9uPjQyPC9leGlmOlBpeGVsWURpbWVuc2lvbj4KICAgICAgPC9yZGY6RGVzY3JpcHRpb24+CiAgIDwvcmRmOlJERj4KPC94OnhtcG1ldGE+CmjXSdYAAAAcaURPVAAAAAIAAAAAAAAAFQAAACgAAAAVAAAAFQAAAeFYsz6HAAABrUlEQVRYCeyUz6tBQRTHv4Ms/IiNsvHrD7C0t7CxsFKShY1LKcn/oCwU/4J/gwj5G5CVUEiKkrV5d+Z1J7d03Xnd92zeqWnOzDnz/TRzzr2EqoYPGPkH/9Wrf+ypwWosa4/Hg3Y6HToajWSPivwfgYfDIY3H4zSRSNDL5SLEZBxpMLttNpvlYAbvdrsyPJErXePxeIxGoyF60OVyod/vw+/3iz0zjjQ4l8thtVrptBVFQb1e1+29W0iBp9PpS4Db7ea39vl873giLgXO5/NYLpfi8LNTqVRQq9Wetwx90+DZbGYo7PF4MBgM4PV6DYFa0DS4UChgPp9r517O1WoVbJgxHfh+v2O73WK32/GZ+dr6dru91SOEIBAIIBqNIhwO8xGJRPgcCoXgdDqFBun1enQymWCz2eB6vYqA1Y7NZkMwGEQsFkOxWARRG4YuFgurOYZ6rBxEfVbKvsPj8WiYbFUwmUxC/c+D1/hwOKBUKmG/31ul/1InlUqh3W7D4XB8g1nW6XTicNZYv2HpdBqtVgt2u53L67r6fD6jXC5jvV5bys5kMmg2m2ANptkXAAAA//9cS9mPAAABu0lEQVTtVL/LQWEUfi7Jf2GRshiUSZkoi8lgs/kx4C9QymCQZDUopQyKDPwHLGw2ZREDGTAISb2fo64f13n77qf0LU7d7vs+5znn6Tz3va8iLoGHWK/XiEajmEwmD+j7y2AwiEwmA4PB8NRE0QpTdrvdIhaLYTweP5H/ugmFQkin01AU5aWUFSbWbDZDIBB4KdALWCwWdLtdKV0qPBwOEYlEpIW/JcxmMwaDwYvFap1UuF6vI5/Pq7y33jQxTc6FVDibzaLVanE1urFSqQSv18vypcLhcBij0Ygt0gsmEgnE43GWLhV2u93Y7XZskV7Q7/ejUCiwdFZ4sViAimThdDqRTCYxn89RLpexXC5ZqtVqRbvdZnOscK/XA9mkDbvdjlQqBY/Hc0udTic0Gg1UKhVsNpsbTguj0Qj6O0wm0xNOG1a4Wq2CDoYadDJpQnKBuwyIt9/vUavVrs/jJ6IDarPZ1Fb3N91c2sjlcsLhcAifzyeazaY4n89ainR/mVoUi0XhcrmuPfr9PssFh06nU9HpdMTxeOTSurDVaiUu04rD4cDyWavvfnxu9RX+nLeazl+rNYZ8bvtvVv8ALwmYb7kAF0YAAAAASUVORK5CYII=;" parent="1" vertex="1">
          <mxGeometry x="-560" y="-1990" width="14.29" height="20" as="geometry" />
        </mxCell>
        <mxCell id="xDEqfU46yZB2q6ntMZHl-18" value="" style="endArrow=classic;html=1;exitX=1;exitY=0.5;exitDx=0;exitDy=0;entryX=0;entryY=0.278;entryDx=0;entryDy=0;entryPerimeter=0;" parent="1" source="xDEqfU46yZB2q6ntMZHl-1" target="xDEqfU46yZB2q6ntMZHl-5" edge="1">
          <mxGeometry width="50" height="50" relative="1" as="geometry">
            <mxPoint x="-740" y="-1900" as="sourcePoint" />
            <mxPoint x="-690" y="-1950" as="targetPoint" />
          </mxGeometry>
        </mxCell>
        <mxCell id="xDEqfU46yZB2q6ntMZHl-21" value="L7" style="text;html=1;strokeColor=#82b366;fillColor=#d5e8d4;align=center;verticalAlign=middle;whiteSpace=wrap;rounded=0;dashed=1;" parent="1" vertex="1">
          <mxGeometry x="-710" y="-1980" width="40" height="20" as="geometry" />
        </mxCell>
        <mxCell id="xDEqfU46yZB2q6ntMZHl-22" value="" style="endArrow=classic;html=1;exitX=1;exitY=0.5;exitDx=0;exitDy=0;entryX=0;entryY=0.278;entryDx=0;entryDy=0;entryPerimeter=0;fillColor=#f8cecc;strokeColor=#b85450;" parent="1" edge="1">
          <mxGeometry width="50" height="50" relative="1" as="geometry">
            <mxPoint x="-740" y="-1770.5" as="sourcePoint" />
            <mxPoint x="-620" y="-1770.42" as="targetPoint" />
          </mxGeometry>
        </mxCell>
        <mxCell id="xDEqfU46yZB2q6ntMZHl-23" value="L4" style="text;html=1;strokeColor=#b85450;fillColor=#f8cecc;align=center;verticalAlign=middle;whiteSpace=wrap;rounded=0;dashed=1;" parent="1" vertex="1">
          <mxGeometry x="-710" y="-1800" width="40" height="20" as="geometry" />
        </mxCell>
        <mxCell id="xDEqfU46yZB2q6ntMZHl-24" value="&lt;font style=&quot;font-size: 18px&quot;&gt;Cluster&lt;/font&gt;" style="text;html=1;strokeColor=none;fillColor=none;align=center;verticalAlign=middle;whiteSpace=wrap;rounded=0;dashed=1;" parent="1" vertex="1">
          <mxGeometry x="-280" y="-2090" width="40" height="20" as="geometry" />
        </mxCell>
        <mxCell id="xDEqfU46yZB2q6ntMZHl-25" value="P1" style="html=1;outlineConnect=0;whiteSpace=wrap;fillColor=#008a00;shape=mxgraph.archimate3.service;dashed=1;strokeWidth=3;strokeColor=#005700;fontColor=#ffffff;" parent="1" vertex="1">
          <mxGeometry x="-560" y="-1920" width="40" height="20" as="geometry" />
        </mxCell>
        <mxCell id="xDEqfU46yZB2q6ntMZHl-26" value="R2" style="html=1;outlineConnect=0;whiteSpace=wrap;shape=mxgraph.archimate3.service;dashed=1;strokeWidth=3;" parent="1" vertex="1">
          <mxGeometry x="-450" y="-1920" width="40" height="20" as="geometry" />
        </mxCell>
        <mxCell id="xDEqfU46yZB2q6ntMZHl-27" value="P2" style="html=1;outlineConnect=0;whiteSpace=wrap;fillColor=#008a00;shape=mxgraph.archimate3.service;dashed=1;strokeWidth=3;strokeColor=#005700;fontColor=#ffffff;" parent="1" vertex="1">
          <mxGeometry x="-290" y="-1920" width="40" height="20" as="geometry" />
        </mxCell>
        <mxCell id="xDEqfU46yZB2q6ntMZHl-28" value="R1" style="html=1;outlineConnect=0;whiteSpace=wrap;shape=mxgraph.archimate3.service;dashed=1;strokeWidth=3;" parent="1" vertex="1">
          <mxGeometry x="-180" y="-1920" width="40" height="20" as="geometry" />
        </mxCell>
        <mxCell id="xDEqfU46yZB2q6ntMZHl-29" value="" style="endArrow=classic;startArrow=classic;html=1;exitX=1;exitY=0.5;exitDx=0;exitDy=0;exitPerimeter=0;entryX=0;entryY=0.5;entryDx=0;entryDy=0;entryPerimeter=0;" parent="1" source="xDEqfU46yZB2q6ntMZHl-6" target="xDEqfU46yZB2q6ntMZHl-7" edge="1">
          <mxGeometry width="50" height="50" relative="1" as="geometry">
            <mxPoint x="-400" y="-1920" as="sourcePoint" />
            <mxPoint x="-350" y="-1970" as="targetPoint" />
          </mxGeometry>
        </mxCell>
        <mxCell id="xDEqfU46yZB2q6ntMZHl-33" value="L4" style="text;html=1;strokeColor=#82b366;fillColor=#d5e8d4;align=center;verticalAlign=middle;whiteSpace=wrap;rounded=0;dashed=1;" parent="1" vertex="1">
          <mxGeometry x="-370" y="-1980" width="40" height="20" as="geometry" />
        </mxCell>
        <mxCell id="xDEqfU46yZB2q6ntMZHl-35" value="" style="endArrow=classic;startArrow=classic;html=1;exitX=1;exitY=0.5;exitDx=0;exitDy=0;exitPerimeter=0;" parent="1" target="xDEqfU46yZB2q6ntMZHl-8" edge="1">
          <mxGeometry width="50" height="50" relative="1" as="geometry">
            <mxPoint x="-134" y="-1950.5" as="sourcePoint" />
            <mxPoint x="-24" y="-1950.5" as="targetPoint" />
          </mxGeometry>
        </mxCell>
        <mxCell id="xDEqfU46yZB2q6ntMZHl-38" value="L4" style="text;html=1;strokeColor=#82b366;fillColor=#d5e8d4;align=center;verticalAlign=middle;whiteSpace=wrap;rounded=0;dashed=1;" parent="1" vertex="1">
          <mxGeometry x="-100" y="-1980" width="40" height="20" as="geometry" />
        </mxCell>
        <mxCell id="kepf1CVrGvFf2VBISRmh-1" value="&lt;font style=&quot;font-size: 18px&quot;&gt;Node&lt;/font&gt;" style="text;html=1;strokeColor=none;fillColor=none;align=center;verticalAlign=middle;whiteSpace=wrap;rounded=0;dashed=1;" parent="1" vertex="1">
          <mxGeometry x="-510" y="-2030" width="40" height="20" as="geometry" />
        </mxCell>
        <mxCell id="kepf1CVrGvFf2VBISRmh-2" value="&lt;font style=&quot;font-size: 18px&quot;&gt;Node&lt;/font&gt;" style="text;html=1;strokeColor=none;fillColor=none;align=center;verticalAlign=middle;whiteSpace=wrap;rounded=0;dashed=1;" parent="1" vertex="1">
          <mxGeometry x="-232" y="-2030" width="40" height="20" as="geometry" />
        </mxCell>
        <mxCell id="kepf1CVrGvFf2VBISRmh-3" value="&lt;font style=&quot;font-size: 18px&quot;&gt;Node&lt;/font&gt;" style="text;html=1;strokeColor=none;fillColor=none;align=center;verticalAlign=middle;whiteSpace=wrap;rounded=0;dashed=1;" parent="1" vertex="1">
          <mxGeometry x="18" y="-2030" width="40" height="20" as="geometry" />
        </mxCell>
        <mxCell id="kepf1CVrGvFf2VBISRmh-4" value="&lt;font style=&quot;font-size: 18px&quot;&gt;Node&lt;/font&gt;" style="text;html=1;strokeColor=none;fillColor=none;align=center;verticalAlign=middle;whiteSpace=wrap;rounded=0;dashed=1;" parent="1" vertex="1">
          <mxGeometry x="-510" y="-1840" width="40" height="20" as="geometry" />
        </mxCell>
        <mxCell id="kepf1CVrGvFf2VBISRmh-5" value="&lt;font style=&quot;font-size: 18px&quot;&gt;Node&lt;/font&gt;" style="text;html=1;strokeColor=none;fillColor=none;align=center;verticalAlign=middle;whiteSpace=wrap;rounded=0;dashed=1;" parent="1" vertex="1">
          <mxGeometry x="-232" y="-1840" width="40" height="20" as="geometry" />
        </mxCell>
        <mxCell id="kepf1CVrGvFf2VBISRmh-7" value="Deprecated/Removed in 7.0" style="text;html=1;strokeColor=#b85450;fillColor=#f8cecc;align=center;verticalAlign=middle;whiteSpace=wrap;rounded=0;" parent="1" vertex="1">
          <mxGeometry x="-820" y="-1730" width="170" height="20" as="geometry" />
        </mxCell>
        <mxCell id="xHVFb6EfviNifNTpRqK_-1" value="" style="rounded=1;whiteSpace=wrap;html=1;dashed=1;strokeWidth=3;fillColor=#f5f5f5;strokeColor=#666666;fontColor=#333333;" parent="1" vertex="1">
          <mxGeometry x="-460" y="-1455" width="570" height="390" as="geometry" />
        </mxCell>
        <mxCell id="xHVFb6EfviNifNTpRqK_-2" value="&lt;font style=&quot;font-size: 18px&quot;&gt;Cluster&lt;/font&gt;" style="text;html=1;strokeColor=none;fillColor=none;align=center;verticalAlign=middle;whiteSpace=wrap;rounded=0;dashed=1;" parent="1" vertex="1">
          <mxGeometry x="-230" y="-1490" width="40" height="20" as="geometry" />
        </mxCell>
        <mxCell id="xHVFb6EfviNifNTpRqK_-3" value="&lt;b&gt;RestAction&lt;/b&gt;&lt;br&gt;Coordinator node" style="html=1;outlineConnect=0;whiteSpace=wrap;fillColor=#d5e8d4;shape=mxgraph.archimate3.application;appType=node;archiType=square;strokeColor=#82b366;strokeWidth=3;" parent="1" vertex="1">
          <mxGeometry x="-350" y="-1370" width="120" height="70" as="geometry" />
        </mxCell>
        <mxCell id="xHVFb6EfviNifNTpRqK_-4" value="&lt;b&gt;TransportAction&lt;/b&gt;&lt;br&gt;Data node" style="html=1;outlineConnect=0;whiteSpace=wrap;fillColor=#d5e8d4;shape=mxgraph.archimate3.application;appType=node;archiType=square;strokeColor=#82b366;strokeWidth=3;" parent="1" vertex="1">
          <mxGeometry x="-80" y="-1280" width="120" height="70" as="geometry" />
        </mxCell>
        <mxCell id="xHVFb6EfviNifNTpRqK_-5" value="&lt;b&gt;TransportAction&lt;br&gt;&lt;/b&gt;Data node" style="html=1;outlineConnect=0;whiteSpace=wrap;fillColor=#d5e8d4;shape=mxgraph.archimate3.application;appType=node;archiType=square;strokeColor=#82b366;strokeWidth=3;" parent="1" vertex="1">
          <mxGeometry x="-80" y="-1170" width="120" height="70" as="geometry" />
        </mxCell>
        <mxCell id="xHVFb6EfviNifNTpRqK_-6" value="Rest High Level Client" style="ellipse;whiteSpace=wrap;html=1;aspect=fixed;fillColor=#d5e8d4;strokeColor=#82b366;" parent="1" vertex="1">
          <mxGeometry x="-770" y="-1375" width="80" height="80" as="geometry" />
        </mxCell>
        <mxCell id="xHVFb6EfviNifNTpRqK_-7" value="Rest Client" style="ellipse;whiteSpace=wrap;html=1;aspect=fixed;fillColor=#d5e8d4;strokeColor=#82b366;" parent="1" vertex="1">
          <mxGeometry x="-600" y="-1375" width="80" height="80" as="geometry" />
        </mxCell>
        <mxCell id="xHVFb6EfviNifNTpRqK_-8" value="Transport Client" style="ellipse;whiteSpace=wrap;html=1;aspect=fixed;fillColor=#f8cecc;strokeColor=#b85450;" parent="1" vertex="1">
          <mxGeometry x="-600" y="-1230" width="80" height="80" as="geometry" />
        </mxCell>
        <mxCell id="xHVFb6EfviNifNTpRqK_-9" value="" style="endArrow=classic;html=1;exitX=1;exitY=0.5;exitDx=0;exitDy=0;entryX=0;entryY=0.5;entryDx=0;entryDy=0;" parent="1" source="xHVFb6EfviNifNTpRqK_-6" target="xHVFb6EfviNifNTpRqK_-7" edge="1">
          <mxGeometry width="50" height="50" relative="1" as="geometry">
            <mxPoint x="-680" y="-1420" as="sourcePoint" />
            <mxPoint x="-560" y="-1419.92" as="targetPoint" />
          </mxGeometry>
        </mxCell>
        <mxCell id="xHVFb6EfviNifNTpRqK_-11" value="" style="endArrow=classic;html=1;exitX=1;exitY=0.5;exitDx=0;exitDy=0;entryX=0;entryY=0.5;entryDx=0;entryDy=0;entryPerimeter=0;" parent="1" source="xHVFb6EfviNifNTpRqK_-7" target="xHVFb6EfviNifNTpRqK_-3" edge="1">
          <mxGeometry width="50" height="50" relative="1" as="geometry">
            <mxPoint x="-520" y="-1370.5" as="sourcePoint" />
            <mxPoint x="-430" y="-1370.5" as="targetPoint" />
          </mxGeometry>
        </mxCell>
        <mxCell id="xHVFb6EfviNifNTpRqK_-12" value="http" style="text;html=1;strokeColor=#82b366;fillColor=#d5e8d4;align=center;verticalAlign=middle;whiteSpace=wrap;rounded=0;dashed=1;" parent="1" vertex="1">
          <mxGeometry x="-510" y="-1360" width="40" height="20" as="geometry" />
        </mxCell>
        <mxCell id="xHVFb6EfviNifNTpRqK_-15" value="tcp" style="text;html=1;strokeColor=#82b366;fillColor=#d5e8d4;align=center;verticalAlign=middle;whiteSpace=wrap;rounded=0;dashed=1;" parent="1" vertex="1">
          <mxGeometry x="-170" y="-1160" width="60" height="20" as="geometry" />
        </mxCell>
        <mxCell id="xHVFb6EfviNifNTpRqK_-18" value="Kibana&lt;br&gt;Postman&lt;br&gt;Curl" style="ellipse;whiteSpace=wrap;html=1;aspect=fixed;fillColor=#d5e8d4;strokeColor=#82b366;" parent="1" vertex="1">
          <mxGeometry x="-600" y="-1480" width="80" height="80" as="geometry" />
        </mxCell>
        <mxCell id="xHVFb6EfviNifNTpRqK_-19" value="" style="endArrow=classic;html=1;exitX=1;exitY=0.5;exitDx=0;exitDy=0;entryX=0;entryY=0.5;entryDx=0;entryDy=0;entryPerimeter=0;" parent="1" source="xHVFb6EfviNifNTpRqK_-18" target="xHVFb6EfviNifNTpRqK_-3" edge="1">
          <mxGeometry width="50" height="50" relative="1" as="geometry">
            <mxPoint x="-510" y="-1325" as="sourcePoint" />
            <mxPoint x="-260" y="-1325" as="targetPoint" />
          </mxGeometry>
        </mxCell>
        <mxCell id="xHVFb6EfviNifNTpRqK_-21" value="http" style="text;html=1;strokeColor=#82b366;fillColor=#d5e8d4;align=center;verticalAlign=middle;whiteSpace=wrap;rounded=0;dashed=1;" parent="1" vertex="1">
          <mxGeometry x="-510" y="-1440" width="40" height="20" as="geometry" />
        </mxCell>
        <mxCell id="xHVFb6EfviNifNTpRqK_-22" value="" style="endArrow=classic;html=1;exitX=1;exitY=0.5;exitDx=0;exitDy=0;entryX=0;entryY=0.5;entryDx=0;entryDy=0;entryPerimeter=0;exitPerimeter=0;" parent="1" source="xHVFb6EfviNifNTpRqK_-34" target="xHVFb6EfviNifNTpRqK_-4" edge="1">
          <mxGeometry width="50" height="50" relative="1" as="geometry">
            <mxPoint x="-450" y="-1220.5" as="sourcePoint" />
            <mxPoint x="-300" y="-1220" as="targetPoint" />
            <Array as="points">
              <mxPoint x="-190" y="-1190" />
              <mxPoint x="-190" y="-1245" />
            </Array>
          </mxGeometry>
        </mxCell>
        <mxCell id="xHVFb6EfviNifNTpRqK_-17" value="tcp" style="text;html=1;strokeColor=#82b366;fillColor=#d5e8d4;align=center;verticalAlign=middle;whiteSpace=wrap;rounded=0;dashed=1;" parent="1" vertex="1">
          <mxGeometry x="-160" y="-1270" width="60" height="20" as="geometry" />
        </mxCell>
        <mxCell id="xHVFb6EfviNifNTpRqK_-28" value="" style="endArrow=classic;html=1;entryX=0;entryY=0.5;entryDx=0;entryDy=0;entryPerimeter=0;exitX=1;exitY=0.5;exitDx=0;exitDy=0;exitPerimeter=0;" parent="1" source="xHVFb6EfviNifNTpRqK_-34" target="xHVFb6EfviNifNTpRqK_-5" edge="1">
          <mxGeometry width="50" height="50" relative="1" as="geometry">
            <mxPoint x="-200" y="-1190" as="sourcePoint" />
            <mxPoint x="-190" y="-1235" as="targetPoint" />
            <Array as="points">
              <mxPoint x="-190" y="-1190" />
              <mxPoint x="-190" y="-1135" />
            </Array>
          </mxGeometry>
        </mxCell>
        <mxCell id="xHVFb6EfviNifNTpRqK_-34" value="&lt;b&gt;TransportAction&lt;/b&gt;&lt;br&gt;Coordinator node" style="html=1;outlineConnect=0;whiteSpace=wrap;fillColor=#d5e8d4;shape=mxgraph.archimate3.application;appType=node;archiType=square;strokeColor=#82b366;strokeWidth=3;" parent="1" vertex="1">
          <mxGeometry x="-350" y="-1225" width="120" height="70" as="geometry" />
        </mxCell>
        <mxCell id="xHVFb6EfviNifNTpRqK_-37" value="" style="endArrow=classic;html=1;exitX=1;exitY=0.5;exitDx=0;exitDy=0;entryX=0;entryY=0.5;entryDx=0;entryDy=0;entryPerimeter=0;" parent="1" source="xHVFb6EfviNifNTpRqK_-8" target="xHVFb6EfviNifNTpRqK_-34" edge="1">
          <mxGeometry width="50" height="50" relative="1" as="geometry">
            <mxPoint x="-520" y="-1190" as="sourcePoint" />
            <mxPoint x="-430.0000000000016" y="-1190" as="targetPoint" />
          </mxGeometry>
        </mxCell>
        <mxCell id="xHVFb6EfviNifNTpRqK_-38" value="tcp" style="text;html=1;strokeColor=#b85450;fillColor=#f8cecc;align=center;verticalAlign=middle;whiteSpace=wrap;rounded=0;dashed=1;" parent="1" vertex="1">
          <mxGeometry x="-510" y="-1210" width="40" height="20" as="geometry" />
        </mxCell>
        <mxCell id="xHVFb6EfviNifNTpRqK_-40" value="" style="endArrow=classic;html=1;exitX=0.5;exitY=1;exitDx=0;exitDy=0;entryX=0.5;entryY=0;entryDx=0;entryDy=0;entryPerimeter=0;exitPerimeter=0;" parent="1" source="xHVFb6EfviNifNTpRqK_-3" target="xHVFb6EfviNifNTpRqK_-34" edge="1">
          <mxGeometry width="50" height="50" relative="1" as="geometry">
            <mxPoint x="-269.9999999999984" y="-1310" as="sourcePoint" />
            <mxPoint x="-100" y="-1310" as="targetPoint" />
          </mxGeometry>
        </mxCell>
        <mxCell id="xHVFb6EfviNifNTpRqK_-41" value="local" style="text;html=1;align=center;verticalAlign=middle;whiteSpace=wrap;rounded=0;dashed=1;fillColor=#f5f5f5;strokeColor=#666666;fontColor=#333333;" parent="1" vertex="1">
          <mxGeometry x="-290" y="-1280" width="48" height="20" as="geometry" />
        </mxCell>
        <mxCell id="MoJsoWqls6S8jJP2CRe9-1" value="&lt;b&gt;TDSQL&lt;/b&gt;" style="html=1;outlineConnect=0;whiteSpace=wrap;fillColor=#d5e8d4;shape=mxgraph.archimate3.application;appType=node;archiType=square;strokeColor=#82b366;strokeWidth=3;" parent="1" vertex="1">
          <mxGeometry x="-710" y="-900" width="160" height="70" as="geometry" />
        </mxCell>
        <mxCell id="MoJsoWqls6S8jJP2CRe9-2" value="" style="endArrow=classic;html=1;entryX=0.5;entryY=0;entryDx=0;entryDy=0;entryPerimeter=0;startArrow=none;" parent="1" source="MoJsoWqls6S8jJP2CRe9-4" target="MoJsoWqls6S8jJP2CRe9-1" edge="1">
          <mxGeometry width="50" height="50" relative="1" as="geometry">
            <mxPoint x="-630" y="-970" as="sourcePoint" />
            <mxPoint x="-800" y="-835.5" as="targetPoint" />
          </mxGeometry>
        </mxCell>
        <mxCell id="MoJsoWqls6S8jJP2CRe9-6" value="" style="endArrow=classic;html=1;exitX=0.5;exitY=1;exitDx=0;exitDy=0;exitPerimeter=0;entryX=0.5;entryY=0;entryDx=0;entryDy=0;entryPerimeter=0;startArrow=none;" parent="1" source="MoJsoWqls6S8jJP2CRe9-7" target="MoJsoWqls6S8jJP2CRe9-26" edge="1">
          <mxGeometry width="50" height="50" relative="1" as="geometry">
            <mxPoint x="-620" y="-835.5" as="sourcePoint" />
            <mxPoint x="-660" y="-710" as="targetPoint" />
          </mxGeometry>
        </mxCell>
        <mxCell id="MoJsoWqls6S8jJP2CRe9-8" value="&lt;b&gt;Oceanus Flink&lt;/b&gt;" style="html=1;outlineConnect=0;whiteSpace=wrap;fillColor=#fff2cc;shape=mxgraph.archimate3.application;appType=node;archiType=square;strokeColor=#d6b656;strokeWidth=3;" parent="1" vertex="1">
          <mxGeometry x="-510" y="-710" width="160" height="70" as="geometry" />
        </mxCell>
        <mxCell id="MoJsoWqls6S8jJP2CRe9-11" value="" style="endArrow=classic;html=1;exitX=1;exitY=0.5;exitDx=0;exitDy=0;entryX=0;entryY=0.5;entryDx=0;entryDy=0;entryPerimeter=0;exitPerimeter=0;" parent="1" target="MoJsoWqls6S8jJP2CRe9-8" edge="1">
          <mxGeometry width="50" height="50" relative="1" as="geometry">
            <mxPoint x="-580" y="-675" as="sourcePoint" />
            <mxPoint x="-490" y="-825" as="targetPoint" />
          </mxGeometry>
        </mxCell>
        <mxCell id="MoJsoWqls6S8jJP2CRe9-13" value="&lt;b&gt;HBase&lt;/b&gt;" style="html=1;outlineConnect=0;whiteSpace=wrap;fillColor=#d5e8d4;shape=mxgraph.archimate3.application;appType=node;archiType=square;strokeColor=#82b366;strokeWidth=3;" parent="1" vertex="1">
          <mxGeometry x="-230" y="-710" width="160" height="70" as="geometry" />
        </mxCell>
        <mxCell id="MoJsoWqls6S8jJP2CRe9-15" value="" style="endArrow=classic;html=1;exitX=1;exitY=0.5;exitDx=0;exitDy=0;exitPerimeter=0;startArrow=none;" parent="1" source="MoJsoWqls6S8jJP2CRe9-21" target="MoJsoWqls6S8jJP2CRe9-13" edge="1">
          <mxGeometry width="50" height="50" relative="1" as="geometry">
            <mxPoint x="-420" y="-630" as="sourcePoint" />
            <mxPoint x="-420" y="-530" as="targetPoint" />
          </mxGeometry>
        </mxCell>
        <mxCell id="MoJsoWqls6S8jJP2CRe9-21" value="1. insert" style="text;html=1;strokeColor=#b85450;fillColor=#f8cecc;align=center;verticalAlign=middle;whiteSpace=wrap;rounded=0;dashed=1;" parent="1" vertex="1">
          <mxGeometry x="-320" y="-685" width="60" height="20" as="geometry" />
        </mxCell>
        <mxCell id="MoJsoWqls6S8jJP2CRe9-22" value="" style="endArrow=none;html=1;exitX=1;exitY=0.5;exitDx=0;exitDy=0;exitPerimeter=0;" parent="1" source="MoJsoWqls6S8jJP2CRe9-8" target="MoJsoWqls6S8jJP2CRe9-21" edge="1">
          <mxGeometry width="50" height="50" relative="1" as="geometry">
            <mxPoint x="-310" y="-675" as="sourcePoint" />
            <mxPoint x="-190" y="-675" as="targetPoint" />
          </mxGeometry>
        </mxCell>
        <mxCell id="MoJsoWqls6S8jJP2CRe9-23" value="" style="endArrow=classic;html=1;exitX=0.5;exitY=0;exitDx=0;exitDy=0;entryX=1;entryY=0.5;entryDx=0;entryDy=0;entryPerimeter=0;" parent="1" source="MoJsoWqls6S8jJP2CRe9-21" target="MoJsoWqls6S8jJP2CRe9-1" edge="1">
          <mxGeometry width="50" height="50" relative="1" as="geometry">
            <mxPoint x="-570" y="-665" as="sourcePoint" />
            <mxPoint x="-460" y="-665" as="targetPoint" />
            <Array as="points">
              <mxPoint x="-290" y="-865" />
            </Array>
          </mxGeometry>
        </mxCell>
        <mxCell id="MoJsoWqls6S8jJP2CRe9-24" value="2. delete" style="text;html=1;strokeColor=#b85450;fillColor=#f8cecc;align=center;verticalAlign=middle;whiteSpace=wrap;rounded=0;dashed=1;" parent="1" vertex="1">
          <mxGeometry x="-432" y="-890" width="60" height="20" as="geometry" />
        </mxCell>
        <mxCell id="MoJsoWqls6S8jJP2CRe9-26" value="&lt;b&gt;CKafka&lt;/b&gt;" style="html=1;outlineConnect=0;whiteSpace=wrap;fillColor=#fff2cc;shape=mxgraph.archimate3.application;appType=node;archiType=square;strokeColor=#d6b656;strokeWidth=3;" parent="1" vertex="1">
          <mxGeometry x="-710" y="-710" width="160" height="70" as="geometry" />
        </mxCell>
        <mxCell id="MoJsoWqls6S8jJP2CRe9-4" value="upsert" style="text;html=1;strokeColor=#82b366;fillColor=#d5e8d4;align=center;verticalAlign=middle;whiteSpace=wrap;rounded=0;dashed=1;" parent="1" vertex="1">
          <mxGeometry x="-650" y="-940" width="40" height="20" as="geometry" />
        </mxCell>
        <mxCell id="MoJsoWqls6S8jJP2CRe9-27" value="" style="endArrow=none;html=1;entryX=0.5;entryY=0;entryDx=0;entryDy=0;entryPerimeter=0;" parent="1" target="MoJsoWqls6S8jJP2CRe9-4" edge="1">
          <mxGeometry width="50" height="50" relative="1" as="geometry">
            <mxPoint x="-630" y="-970" as="sourcePoint" />
            <mxPoint x="-630" y="-900" as="targetPoint" />
          </mxGeometry>
        </mxCell>
        <mxCell id="MoJsoWqls6S8jJP2CRe9-7" value="binlog" style="text;html=1;strokeColor=#82b366;fillColor=#d5e8d4;align=center;verticalAlign=middle;whiteSpace=wrap;rounded=0;dashed=1;" parent="1" vertex="1">
          <mxGeometry x="-655" y="-780" width="50" height="20" as="geometry" />
        </mxCell>
        <mxCell id="MoJsoWqls6S8jJP2CRe9-28" value="" style="endArrow=none;html=1;exitX=0.5;exitY=1;exitDx=0;exitDy=0;exitPerimeter=0;entryX=0.5;entryY=0;entryDx=0;entryDy=0;entryPerimeter=0;" parent="1" source="MoJsoWqls6S8jJP2CRe9-1" target="MoJsoWqls6S8jJP2CRe9-7" edge="1">
          <mxGeometry width="50" height="50" relative="1" as="geometry">
            <mxPoint x="-630" y="-830" as="sourcePoint" />
            <mxPoint x="-630" y="-710" as="targetPoint" />
          </mxGeometry>
        </mxCell>
        <mxCell id="MoJsoWqls6S8jJP2CRe9-29" value="&lt;b&gt;TDSQL&lt;/b&gt;" style="html=1;outlineConnect=0;whiteSpace=wrap;fillColor=#d5e8d4;shape=mxgraph.archimate3.application;appType=node;archiType=square;strokeColor=#82b366;strokeWidth=3;" parent="1" vertex="1">
          <mxGeometry x="-705.71" y="-320" width="160" height="70" as="geometry" />
        </mxCell>
        <mxCell id="MoJsoWqls6S8jJP2CRe9-30" value="Online Back-end &amp;nbsp;Server" style="html=1;outlineConnect=0;whiteSpace=wrap;fillColor=#fff2cc;shape=mxgraph.archimate3.application;appType=node;archiType=square;strokeColor=#d6b656;strokeWidth=3;" parent="1" vertex="1">
          <mxGeometry x="-605" y="-470" width="160" height="70" as="geometry" />
        </mxCell>
        <mxCell id="MoJsoWqls6S8jJP2CRe9-31" value="&lt;b&gt;HBase&lt;/b&gt;" style="html=1;outlineConnect=0;whiteSpace=wrap;fillColor=#d5e8d4;shape=mxgraph.archimate3.application;appType=node;archiType=square;strokeColor=#82b366;strokeWidth=3;" parent="1" vertex="1">
          <mxGeometry x="-490" y="-320" width="160" height="70" as="geometry" />
        </mxCell>
        <mxCell id="MoJsoWqls6S8jJP2CRe9-32" value="gets" style="text;html=1;strokeColor=#82b366;fillColor=#d5e8d4;align=center;verticalAlign=middle;whiteSpace=wrap;rounded=0;dashed=1;" parent="1" vertex="1">
          <mxGeometry x="-559.29" y="-520" width="60" height="20" as="geometry" />
        </mxCell>
        <mxCell id="MoJsoWqls6S8jJP2CRe9-35" value="" style="endArrow=classic;html=1;entryX=0.5;entryY=0;entryDx=0;entryDy=0;entryPerimeter=0;startArrow=none;" parent="1" target="MoJsoWqls6S8jJP2CRe9-30" edge="1">
          <mxGeometry width="50" height="50" relative="1" as="geometry">
            <mxPoint x="-525.29" y="-550" as="sourcePoint" />
            <mxPoint x="-519.29" y="-490" as="targetPoint" />
          </mxGeometry>
        </mxCell>
        <mxCell id="MoJsoWqls6S8jJP2CRe9-37" value="" style="endArrow=classic;html=1;exitX=0.5;exitY=1;exitDx=0;exitDy=0;exitPerimeter=0;entryX=0.5;entryY=0;entryDx=0;entryDy=0;entryPerimeter=0;startArrow=none;" parent="1" source="MoJsoWqls6S8jJP2CRe9-30" target="MoJsoWqls6S8jJP2CRe9-29" edge="1">
          <mxGeometry width="50" height="50" relative="1" as="geometry">
            <mxPoint x="-620" y="-750" as="sourcePoint" />
            <mxPoint x="-620" y="-700" as="targetPoint" />
            <Array as="points">
              <mxPoint x="-525" y="-360" />
              <mxPoint x="-626" y="-360" />
            </Array>
          </mxGeometry>
        </mxCell>
        <mxCell id="MoJsoWqls6S8jJP2CRe9-38" value="" style="endArrow=classic;html=1;exitX=0.5;exitY=1;exitDx=0;exitDy=0;exitPerimeter=0;entryX=0.5;entryY=0;entryDx=0;entryDy=0;entryPerimeter=0;startArrow=none;" parent="1" source="MoJsoWqls6S8jJP2CRe9-30" target="MoJsoWqls6S8jJP2CRe9-31" edge="1">
          <mxGeometry width="50" height="50" relative="1" as="geometry">
            <mxPoint x="-515" y="-390" as="sourcePoint" />
            <mxPoint x="-615.71" y="-310" as="targetPoint" />
            <Array as="points">
              <mxPoint x="-525" y="-360" />
              <mxPoint x="-410" y="-360" />
            </Array>
          </mxGeometry>
        </mxCell>
        <mxCell id="MoJsoWqls6S8jJP2CRe9-39" value="1. gets" style="text;html=1;strokeColor=#b85450;fillColor=#f8cecc;align=center;verticalAlign=middle;whiteSpace=wrap;rounded=0;dashed=1;" parent="1" vertex="1">
          <mxGeometry x="-605.71" y="-380" width="60" height="20" as="geometry" />
        </mxCell>
        <mxCell id="MoJsoWqls6S8jJP2CRe9-42" value="2. 饥饿补偿" style="text;html=1;strokeColor=#b85450;fillColor=#f8cecc;align=center;verticalAlign=middle;whiteSpace=wrap;rounded=0;dashed=1;" parent="1" vertex="1">
          <mxGeometry x="-505" y="-380" width="75" height="20" as="geometry" />
        </mxCell>
        <mxCell id="MoJsoWqls6S8jJP2CRe9-59" value="&lt;b&gt;TDSQL&lt;/b&gt;" style="html=1;outlineConnect=0;whiteSpace=wrap;fillColor=#d5e8d4;shape=mxgraph.archimate3.application;appType=node;archiType=square;strokeColor=#82b366;strokeWidth=3;" parent="1" vertex="1">
          <mxGeometry x="-790" y="100" width="160" height="40" as="geometry" />
        </mxCell>
        <mxCell id="MoJsoWqls6S8jJP2CRe9-60" value="" style="endArrow=classic;html=1;entryX=0.5;entryY=0;entryDx=0;entryDy=0;entryPerimeter=0;startArrow=none;" parent="1" source="MoJsoWqls6S8jJP2CRe9-71" target="MoJsoWqls6S8jJP2CRe9-59" edge="1">
          <mxGeometry width="50" height="50" relative="1" as="geometry">
            <mxPoint x="-710" y="-60" as="sourcePoint" />
            <mxPoint x="-880" y="74.5" as="targetPoint" />
          </mxGeometry>
        </mxCell>
        <mxCell id="MoJsoWqls6S8jJP2CRe9-61" value="" style="endArrow=classic;html=1;exitX=0.5;exitY=1;exitDx=0;exitDy=0;exitPerimeter=0;entryX=0.5;entryY=0;entryDx=0;entryDy=0;entryPerimeter=0;startArrow=none;" parent="1" source="MoJsoWqls6S8jJP2CRe9-73" target="MoJsoWqls6S8jJP2CRe9-70" edge="1">
          <mxGeometry width="50" height="50" relative="1" as="geometry">
            <mxPoint x="-700" y="74.5" as="sourcePoint" />
            <mxPoint x="-740" y="200" as="targetPoint" />
          </mxGeometry>
        </mxCell>
        <mxCell id="MoJsoWqls6S8jJP2CRe9-62" value="&lt;b&gt;Oceanus Flink&lt;/b&gt;" style="html=1;outlineConnect=0;whiteSpace=wrap;fillColor=#fff2cc;shape=mxgraph.archimate3.application;appType=node;archiType=square;strokeColor=#d6b656;strokeWidth=3;" parent="1" vertex="1">
          <mxGeometry x="-510" y="200" width="160" height="40" as="geometry" />
        </mxCell>
        <mxCell id="MoJsoWqls6S8jJP2CRe9-63" value="" style="endArrow=classic;html=1;exitX=1;exitY=0.5;exitDx=0;exitDy=0;entryX=0;entryY=0.5;entryDx=0;entryDy=0;entryPerimeter=0;exitPerimeter=0;" parent="1" source="MoJsoWqls6S8jJP2CRe9-70" target="MoJsoWqls6S8jJP2CRe9-62" edge="1">
          <mxGeometry width="50" height="50" relative="1" as="geometry">
            <mxPoint x="-660" y="235" as="sourcePoint" />
            <mxPoint x="-570" y="85" as="targetPoint" />
          </mxGeometry>
        </mxCell>
        <mxCell id="MoJsoWqls6S8jJP2CRe9-64" value="&lt;b&gt;HBase&lt;/b&gt;" style="html=1;outlineConnect=0;whiteSpace=wrap;fillColor=#d5e8d4;shape=mxgraph.archimate3.application;appType=node;archiType=square;strokeColor=#82b366;strokeWidth=3;" parent="1" vertex="1">
          <mxGeometry x="-170" y="200" width="160" height="40" as="geometry" />
        </mxCell>
        <mxCell id="MoJsoWqls6S8jJP2CRe9-65" value="" style="endArrow=classic;html=1;exitX=1;exitY=0.5;exitDx=0;exitDy=0;exitPerimeter=0;startArrow=none;" parent="1" source="MoJsoWqls6S8jJP2CRe9-66" target="MoJsoWqls6S8jJP2CRe9-64" edge="1">
          <mxGeometry width="50" height="50" relative="1" as="geometry">
            <mxPoint x="-500" y="280" as="sourcePoint" />
            <mxPoint x="-500" y="380" as="targetPoint" />
          </mxGeometry>
        </mxCell>
        <mxCell id="MoJsoWqls6S8jJP2CRe9-66" value="put" style="text;html=1;strokeColor=#b85450;fillColor=#f8cecc;align=center;verticalAlign=middle;whiteSpace=wrap;rounded=0;dashed=1;" parent="1" vertex="1">
          <mxGeometry x="-270" y="210" width="30" height="20" as="geometry" />
        </mxCell>
        <mxCell id="MoJsoWqls6S8jJP2CRe9-67" value="" style="endArrow=none;html=1;exitX=1;exitY=0.5;exitDx=0;exitDy=0;exitPerimeter=0;" parent="1" source="MoJsoWqls6S8jJP2CRe9-62" target="MoJsoWqls6S8jJP2CRe9-66" edge="1">
          <mxGeometry width="50" height="50" relative="1" as="geometry">
            <mxPoint x="-390" y="235" as="sourcePoint" />
            <mxPoint x="-270" y="235" as="targetPoint" />
          </mxGeometry>
        </mxCell>
        <mxCell id="MoJsoWqls6S8jJP2CRe9-70" value="&lt;b&gt;CKafka&lt;/b&gt;" style="html=1;outlineConnect=0;whiteSpace=wrap;fillColor=#fff2cc;shape=mxgraph.archimate3.application;appType=node;archiType=square;strokeColor=#d6b656;strokeWidth=3;" parent="1" vertex="1">
          <mxGeometry x="-790" y="200" width="160" height="40" as="geometry" />
        </mxCell>
        <mxCell id="MoJsoWqls6S8jJP2CRe9-71" value="sql" style="text;html=1;strokeColor=#82b366;fillColor=#d5e8d4;align=center;verticalAlign=middle;whiteSpace=wrap;rounded=0;dashed=1;" parent="1" vertex="1">
          <mxGeometry x="-730" y="50" width="40" height="20" as="geometry" />
        </mxCell>
        <mxCell id="MoJsoWqls6S8jJP2CRe9-73" value="binlog" style="text;html=1;strokeColor=#82b366;fillColor=#d5e8d4;align=center;verticalAlign=middle;whiteSpace=wrap;rounded=0;dashed=1;" parent="1" vertex="1">
          <mxGeometry x="-735.71" y="150" width="50" height="20" as="geometry" />
        </mxCell>
        <mxCell id="MoJsoWqls6S8jJP2CRe9-74" value="" style="endArrow=none;html=1;exitX=0.5;exitY=1;exitDx=0;exitDy=0;exitPerimeter=0;entryX=0.5;entryY=0;entryDx=0;entryDy=0;entryPerimeter=0;" parent="1" source="MoJsoWqls6S8jJP2CRe9-59" target="MoJsoWqls6S8jJP2CRe9-73" edge="1">
          <mxGeometry width="50" height="50" relative="1" as="geometry">
            <mxPoint x="-710" y="80" as="sourcePoint" />
            <mxPoint x="-710" y="200" as="targetPoint" />
          </mxGeometry>
        </mxCell>
        <mxCell id="MoJsoWqls6S8jJP2CRe9-79" value="&lt;b&gt;Back-end &amp;nbsp;Server&lt;/b&gt;" style="html=1;outlineConnect=0;whiteSpace=wrap;fillColor=#ffe6cc;shape=mxgraph.archimate3.application;appType=node;archiType=square;strokeColor=#d79b00;strokeWidth=3;" parent="1" vertex="1">
          <mxGeometry x="-170" y="130" width="160" height="40" as="geometry" />
        </mxCell>
        <mxCell id="MoJsoWqls6S8jJP2CRe9-80" value="&lt;b&gt;Web Page&lt;/b&gt;" style="html=1;outlineConnect=0;whiteSpace=wrap;fillColor=#ffe6cc;shape=mxgraph.archimate3.application;appType=node;archiType=square;strokeColor=#d79b00;strokeWidth=3;" parent="1" vertex="1">
          <mxGeometry x="-170" y="50" width="160" height="40" as="geometry" />
        </mxCell>
        <mxCell id="MoJsoWqls6S8jJP2CRe9-81" value="" style="endArrow=classic;html=1;entryX=0.5;entryY=0;entryDx=0;entryDy=0;entryPerimeter=0;exitX=0.5;exitY=1;exitDx=0;exitDy=0;exitPerimeter=0;" parent="1" source="MoJsoWqls6S8jJP2CRe9-80" target="MoJsoWqls6S8jJP2CRe9-79" edge="1">
          <mxGeometry width="50" height="50" relative="1" as="geometry">
            <mxPoint x="-252" y="-20" as="sourcePoint" />
            <mxPoint x="-182" y="-20" as="targetPoint" />
          </mxGeometry>
        </mxCell>
        <mxCell id="MoJsoWqls6S8jJP2CRe9-82" value="" style="endArrow=classic;html=1;entryX=0.5;entryY=0;entryDx=0;entryDy=0;entryPerimeter=0;exitX=0.5;exitY=1;exitDx=0;exitDy=0;exitPerimeter=0;" parent="1" source="MoJsoWqls6S8jJP2CRe9-79" target="MoJsoWqls6S8jJP2CRe9-64" edge="1">
          <mxGeometry width="50" height="50" relative="1" as="geometry">
            <mxPoint x="-80" as="sourcePoint" />
            <mxPoint x="-80" y="60" as="targetPoint" />
          </mxGeometry>
        </mxCell>
        <mxCell id="0bsB7cRav9XPm1xRYD6k-2" value="" style="endArrow=none;dashed=1;html=1;rounded=0;jumpSize=10;strokeWidth=2;" edge="1" parent="1">
          <mxGeometry width="50" height="50" relative="1" as="geometry">
            <mxPoint x="-789.29" y="-3180" as="sourcePoint" />
            <mxPoint x="90.71000000000001" y="-3180" as="targetPoint" />
          </mxGeometry>
        </mxCell>
        <mxCell id="0bsB7cRav9XPm1xRYD6k-3" value="" style="endArrow=none;dashed=1;html=1;rounded=0;jumpSize=10;strokeWidth=2;" edge="1" parent="1">
          <mxGeometry width="50" height="50" relative="1" as="geometry">
            <mxPoint x="-785" y="-3280" as="sourcePoint" />
            <mxPoint x="95" y="-3280" as="targetPoint" />
          </mxGeometry>
        </mxCell>
        <mxCell id="0bsB7cRav9XPm1xRYD6k-4" value="数据接入层" style="text;html=1;strokeColor=#d79b00;fillColor=#ffe6cc;align=center;verticalAlign=middle;whiteSpace=wrap;rounded=0;dashed=1;" vertex="1" parent="1">
          <mxGeometry x="-775.71" y="-3240" width="120.71" height="20" as="geometry" />
        </mxCell>
        <mxCell id="0bsB7cRav9XPm1xRYD6k-5" value="零售商品" style="rounded=1;whiteSpace=wrap;html=1;fillColor=#d5e8d4;strokeColor=#82b366;" vertex="1" parent="1">
          <mxGeometry x="-595" y="-3260" width="120" height="60" as="geometry" />
        </mxCell>
        <mxCell id="0bsB7cRav9XPm1xRYD6k-6" value="DPA广告商品" style="rounded=1;whiteSpace=wrap;html=1;fillColor=#d5e8d4;strokeColor=#82b366;" vertex="1" parent="1">
          <mxGeometry x="-386.99999999999994" y="-3260" width="120" height="60" as="geometry" />
        </mxCell>
        <mxCell id="0bsB7cRav9XPm1xRYD6k-7" value="CPS广告商品" style="rounded=1;whiteSpace=wrap;html=1;fillColor=#d5e8d4;strokeColor=#82b366;" vertex="1" parent="1">
          <mxGeometry x="-189.28999999999996" y="-3260" width="120" height="60" as="geometry" />
        </mxCell>
        <mxCell id="0bsB7cRav9XPm1xRYD6k-9" value="" style="endArrow=none;dashed=1;html=1;rounded=0;jumpSize=10;strokeWidth=2;" edge="1" parent="1">
          <mxGeometry width="50" height="50" relative="1" as="geometry">
            <mxPoint x="-795" y="-2730" as="sourcePoint" />
            <mxPoint x="85.00000000000003" y="-2730" as="targetPoint" />
          </mxGeometry>
        </mxCell>
        <mxCell id="0bsB7cRav9XPm1xRYD6k-10" value="数据存储&amp;amp;加工层" style="text;html=1;strokeColor=#d79b00;fillColor=#ffe6cc;align=center;verticalAlign=middle;whiteSpace=wrap;rounded=0;dashed=1;" vertex="1" parent="1">
          <mxGeometry x="-795.36" y="-2905" width="120.71" height="20" as="geometry" />
        </mxCell>
        <mxCell id="0bsB7cRav9XPm1xRYD6k-11" value="&lt;i&gt;中央商品库&lt;br&gt;在线核心存储TDSQL&lt;/i&gt;" style="html=1;outlineConnect=0;whiteSpace=wrap;shape=mxgraph.archimate3.application;appType=node;archiType=square;strokeWidth=3;fillColor=#e1d5e7;strokeColor=#9673a6;" vertex="1" parent="1">
          <mxGeometry x="-630" y="-2940" width="188" height="90" as="geometry" />
        </mxCell>
        <mxCell id="0bsB7cRav9XPm1xRYD6k-12" value="&lt;i&gt;中央商品库&lt;br&gt;商品变更历史记录HBase&lt;/i&gt;" style="html=1;outlineConnect=0;whiteSpace=wrap;fillColor=#dae8fc;shape=mxgraph.archimate3.application;appType=node;archiType=square;strokeColor=#6c8ebf;strokeWidth=3;" vertex="1" parent="1">
          <mxGeometry x="-240" y="-2950" width="200" height="85" as="geometry" />
        </mxCell>
        <mxCell id="0bsB7cRav9XPm1xRYD6k-13" value="" style="rounded=1;whiteSpace=wrap;html=1;dashed=1;strokeWidth=3;" vertex="1" parent="1">
          <mxGeometry x="-642.5" y="-3120" width="215" height="100" as="geometry" />
        </mxCell>
        <mxCell id="0bsB7cRav9XPm1xRYD6k-16" value="" style="endArrow=classic;html=1;rounded=0;strokeWidth=1;jumpSize=10;exitX=0.5;exitY=1;exitDx=0;exitDy=0;entryX=0.5;entryY=0;entryDx=0;entryDy=0;" edge="1" parent="1" source="0bsB7cRav9XPm1xRYD6k-5" target="0bsB7cRav9XPm1xRYD6k-13">
          <mxGeometry width="50" height="50" relative="1" as="geometry">
            <mxPoint x="-525" y="-3190" as="sourcePoint" />
            <mxPoint x="-325" y="-3030" as="targetPoint" />
          </mxGeometry>
        </mxCell>
        <mxCell id="0bsB7cRav9XPm1xRYD6k-18" value="商品数据在线读写服务" style="text;html=1;align=center;verticalAlign=middle;whiteSpace=wrap;rounded=0;fillColor=#f5f5f5;fontColor=#333333;strokeColor=#666666;" vertex="1" parent="1">
          <mxGeometry x="-612.5" y="-3080" width="145" height="20" as="geometry" />
        </mxCell>
        <mxCell id="0bsB7cRav9XPm1xRYD6k-19" value="商品数据批量落库服务" style="text;html=1;align=center;verticalAlign=middle;whiteSpace=wrap;rounded=0;fillColor=#f5f5f5;fontColor=#333333;strokeColor=#666666;" vertex="1" parent="1">
          <mxGeometry x="-612.5" y="-3050" width="145" height="20" as="geometry" />
        </mxCell>
        <mxCell id="0bsB7cRav9XPm1xRYD6k-21" value="" style="endArrow=classic;html=1;rounded=0;strokeWidth=1;jumpSize=10;exitX=0.5;exitY=1;exitDx=0;exitDy=0;entryX=0.5;entryY=0;entryDx=0;entryDy=0;" edge="1" parent="1" source="0bsB7cRav9XPm1xRYD6k-6" target="0bsB7cRav9XPm1xRYD6k-13">
          <mxGeometry width="50" height="50" relative="1" as="geometry">
            <mxPoint x="-525" y="-3190" as="sourcePoint" />
            <mxPoint x="-525" y="-3110" as="targetPoint" />
            <Array as="points">
              <mxPoint x="-327" y="-3160" />
              <mxPoint x="-535" y="-3160" />
            </Array>
          </mxGeometry>
        </mxCell>
        <mxCell id="0bsB7cRav9XPm1xRYD6k-22" value="" style="endArrow=classic;html=1;rounded=0;strokeWidth=1;jumpSize=10;exitX=0.5;exitY=1;exitDx=0;exitDy=0;entryX=0.5;entryY=0;entryDx=0;entryDy=0;" edge="1" parent="1" source="0bsB7cRav9XPm1xRYD6k-7" target="0bsB7cRav9XPm1xRYD6k-13">
          <mxGeometry width="50" height="50" relative="1" as="geometry">
            <mxPoint x="-317" y="-3190" as="sourcePoint" />
            <mxPoint x="-525" y="-3110" as="targetPoint" />
            <Array as="points">
              <mxPoint x="-129" y="-3160" />
              <mxPoint x="-535" y="-3160" />
            </Array>
          </mxGeometry>
        </mxCell>
        <mxCell id="0bsB7cRav9XPm1xRYD6k-24" value="" style="endArrow=classic;html=1;rounded=0;strokeWidth=1;jumpSize=10;entryX=0.5;entryY=0;entryDx=0;entryDy=0;entryPerimeter=0;exitX=0.5;exitY=1;exitDx=0;exitDy=0;" edge="1" parent="1" source="0bsB7cRav9XPm1xRYD6k-13" target="0bsB7cRav9XPm1xRYD6k-11">
          <mxGeometry width="50" height="50" relative="1" as="geometry">
            <mxPoint x="-595" y="-3010" as="sourcePoint" />
            <mxPoint x="-355" y="-3030" as="targetPoint" />
          </mxGeometry>
        </mxCell>
        <mxCell id="0bsB7cRav9XPm1xRYD6k-25" value="CKafka" style="strokeWidth=2;html=1;shape=mxgraph.flowchart.direct_data;whiteSpace=wrap;fillColor=#ffe6cc;strokeColor=#d79b00;" vertex="1" parent="1">
          <mxGeometry x="-585" y="-2690" width="100" height="60" as="geometry" />
        </mxCell>
        <mxCell id="0bsB7cRav9XPm1xRYD6k-26" value="" style="endArrow=classic;html=1;rounded=0;strokeWidth=1;jumpSize=10;entryX=0.5;entryY=0;entryDx=0;entryDy=0;entryPerimeter=0;exitX=0.5;exitY=1;exitDx=0;exitDy=0;exitPerimeter=0;" edge="1" parent="1" source="0bsB7cRav9XPm1xRYD6k-11" target="0bsB7cRav9XPm1xRYD6k-25">
          <mxGeometry width="50" height="50" relative="1" as="geometry">
            <mxPoint x="-525" y="-3030" as="sourcePoint" />
            <mxPoint x="-525" y="-2960" as="targetPoint" />
          </mxGeometry>
        </mxCell>
        <mxCell id="0bsB7cRav9XPm1xRYD6k-27" value="腾讯云DTS服务解析Binlog到MQ" style="edgeLabel;html=1;align=center;verticalAlign=middle;resizable=0;points=[];" vertex="1" connectable="0" parent="0bsB7cRav9XPm1xRYD6k-26">
          <mxGeometry x="-0.2398" y="2" relative="1" as="geometry">
            <mxPoint as="offset" />
          </mxGeometry>
        </mxCell>
        <mxCell id="0bsB7cRav9XPm1xRYD6k-28" value="数据分发层" style="text;html=1;strokeColor=#d79b00;fillColor=#ffe6cc;align=center;verticalAlign=middle;whiteSpace=wrap;rounded=0;dashed=1;" vertex="1" parent="1">
          <mxGeometry x="-790" y="-2690" width="120.71" height="20" as="geometry" />
        </mxCell>
        <mxCell id="0bsB7cRav9XPm1xRYD6k-31" value="商品数据模型转换" style="text;html=1;align=center;verticalAlign=middle;whiteSpace=wrap;rounded=0;fillColor=#f5f5f5;fontColor=#333333;strokeColor=#666666;" vertex="1" parent="1">
          <mxGeometry x="-612.5" y="-3110" width="145" height="20" as="geometry" />
        </mxCell>
        <mxCell id="0bsB7cRav9XPm1xRYD6k-32" value="" style="text;html=1;strokeColor=#666666;fillColor=#f5f5f5;align=center;verticalAlign=middle;whiteSpace=wrap;rounded=0;dashed=1;fontColor=#333333;" vertex="1" parent="1">
          <mxGeometry x="-300" y="-3000" width="97" height="20" as="geometry" />
        </mxCell>
        <mxCell id="0bsB7cRav9XPm1xRYD6k-33" value="" style="rounded=1;whiteSpace=wrap;html=1;fillColor=none;align=center;" vertex="1" parent="1">
          <mxGeometry x="-192" y="-3050" width="120" height="60" as="geometry" />
        </mxCell>
        <mxCell id="0bsB7cRav9XPm1xRYD6k-34" value="&lt;b&gt;Redis&lt;/b&gt;" style="html=1;outlineConnect=0;whiteSpace=wrap;fillColor=#fff2cc;shape=mxgraph.archimate3.application;appType=node;archiType=square;strokeColor=#d6b656;strokeWidth=3;" vertex="1" parent="1">
          <mxGeometry x="-250" y="-2520" width="110" height="50" as="geometry" />
        </mxCell>
        <mxCell id="0bsB7cRav9XPm1xRYD6k-35" value="&lt;b&gt;DI数据库&lt;/b&gt;" style="html=1;outlineConnect=0;whiteSpace=wrap;fillColor=#fff2cc;shape=mxgraph.archimate3.application;appType=node;archiType=square;strokeColor=#d6b656;strokeWidth=3;" vertex="1" parent="1">
          <mxGeometry x="-100" y="-2520" width="110" height="50" as="geometry" />
        </mxCell>
        <mxCell id="0bsB7cRav9XPm1xRYD6k-36" value="&lt;b&gt;TDSQL&lt;/b&gt;" style="html=1;outlineConnect=0;whiteSpace=wrap;fillColor=#fff2cc;shape=mxgraph.archimate3.application;appType=node;archiType=square;strokeColor=#d6b656;strokeWidth=3;" vertex="1" parent="1">
          <mxGeometry x="60" y="-2520" width="110" height="50" as="geometry" />
        </mxCell>
        <mxCell id="0bsB7cRav9XPm1xRYD6k-37" value="&lt;b&gt;TDBank&lt;/b&gt;" style="html=1;outlineConnect=0;whiteSpace=wrap;fillColor=#fff2cc;shape=mxgraph.archimate3.application;appType=node;archiType=square;strokeColor=#d6b656;strokeWidth=3;" vertex="1" parent="1">
          <mxGeometry x="210" y="-2520" width="110" height="50" as="geometry" />
        </mxCell>
        <mxCell id="0bsB7cRav9XPm1xRYD6k-38" value="&lt;b&gt;中央商品库ES&lt;/b&gt;" style="html=1;outlineConnect=0;whiteSpace=wrap;fillColor=#fff2cc;shape=mxgraph.archimate3.application;appType=node;archiType=square;strokeColor=#d6b656;strokeWidth=3;" vertex="1" parent="1">
          <mxGeometry x="-674.65" y="-2520" width="110" height="50" as="geometry" />
        </mxCell>
        <mxCell id="0bsB7cRav9XPm1xRYD6k-39" value="&lt;b&gt;dpa商品ES&lt;/b&gt;" style="html=1;outlineConnect=0;whiteSpace=wrap;fillColor=#fff2cc;shape=mxgraph.archimate3.application;appType=node;archiType=square;strokeColor=#d6b656;strokeWidth=3;" vertex="1" parent="1">
          <mxGeometry x="-535" y="-2520" width="110" height="50" as="geometry" />
        </mxCell>
        <mxCell id="0bsB7cRav9XPm1xRYD6k-41" value="&lt;b&gt;sr商品ES&lt;/b&gt;" style="html=1;outlineConnect=0;whiteSpace=wrap;fillColor=#fff2cc;shape=mxgraph.archimate3.application;appType=node;archiType=square;strokeColor=#d6b656;strokeWidth=3;" vertex="1" parent="1">
          <mxGeometry x="-400" y="-2520" width="110" height="50" as="geometry" />
        </mxCell>
        <mxCell id="0bsB7cRav9XPm1xRYD6k-42" value="" style="strokeWidth=2;html=1;shape=mxgraph.flowchart.database;whiteSpace=wrap;fillColor=#ffe6cc;align=center;strokeColor=#d79b00;" vertex="1" parent="1">
          <mxGeometry x="-650" y="-2420" width="60" height="60" as="geometry" />
        </mxCell>
        <mxCell id="0bsB7cRav9XPm1xRYD6k-43" value="" style="strokeWidth=2;html=1;shape=mxgraph.flowchart.database;whiteSpace=wrap;fillColor=#ffe6cc;align=center;strokeColor=#d79b00;" vertex="1" parent="1">
          <mxGeometry x="-505" y="-2420" width="60" height="60" as="geometry" />
        </mxCell>
        <mxCell id="0bsB7cRav9XPm1xRYD6k-44" value="" style="strokeWidth=2;html=1;shape=mxgraph.flowchart.database;whiteSpace=wrap;fillColor=#ffe6cc;align=center;strokeColor=#d79b00;" vertex="1" parent="1">
          <mxGeometry x="-360" y="-2420" width="60" height="60" as="geometry" />
        </mxCell>
        <mxCell id="0bsB7cRav9XPm1xRYD6k-45" value="" style="strokeWidth=2;html=1;shape=mxgraph.flowchart.database;whiteSpace=wrap;fillColor=#ffe6cc;align=center;strokeColor=#d79b00;" vertex="1" parent="1">
          <mxGeometry x="-225" y="-2420" width="60" height="60" as="geometry" />
        </mxCell>
        <mxCell id="0bsB7cRav9XPm1xRYD6k-46" value="" style="strokeWidth=2;html=1;shape=mxgraph.flowchart.database;whiteSpace=wrap;fillColor=#ffe6cc;align=center;strokeColor=#d79b00;" vertex="1" parent="1">
          <mxGeometry x="-70" y="-2420" width="60" height="60" as="geometry" />
        </mxCell>
      </root>
    </mxGraphModel>
  </diagram>
</mxfile>
